<mxfile host="app.diagrams.net" modified="2023-03-08T13:09:34.887Z" agent="5.0 (Windows)" etag="zIkyYVdnCZLBs5_ICRN1" version="21.0.2" type="github">
  <diagram id="C5RBs43oDa-KdzZeNtuy" name="Page-1">
    <mxGraphModel dx="1422" dy="733" grid="1" gridSize="10" guides="1" tooltips="1" connect="1" arrows="1" fold="1" page="1" pageScale="1" pageWidth="827" pageHeight="1169" math="0" shadow="0">
      <root>
        <mxCell id="WIyWlLk6GJQsqaUBKTNV-0" />
        <mxCell id="WIyWlLk6GJQsqaUBKTNV-1" parent="WIyWlLk6GJQsqaUBKTNV-0" />
        <mxCell id="K40TqbRuSOX_g0Syc2Ux-2" value="" style="edgeStyle=orthogonalEdgeStyle;rounded=0;orthogonalLoop=1;jettySize=auto;html=1;" edge="1" parent="WIyWlLk6GJQsqaUBKTNV-1" source="K40TqbRuSOX_g0Syc2Ux-0" target="K40TqbRuSOX_g0Syc2Ux-1">
          <mxGeometry relative="1" as="geometry" />
        </mxCell>
        <mxCell id="K40TqbRuSOX_g0Syc2Ux-0" value="&lt;div&gt;Start&lt;/div&gt;" style="ellipse;whiteSpace=wrap;html=1;fontFamily=Poppins;fontSource=https%3A%2F%2Ffonts.googleapis.com%2Fcss%3Ffamily%3DPoppins;verticalAlign=middle;labelBackgroundColor=none;" vertex="1" parent="WIyWlLk6GJQsqaUBKTNV-1">
          <mxGeometry x="354" y="40" width="120" height="80" as="geometry" />
        </mxCell>
        <mxCell id="K40TqbRuSOX_g0Syc2Ux-4" value="" style="edgeStyle=orthogonalEdgeStyle;rounded=0;orthogonalLoop=1;jettySize=auto;html=1;" edge="1" parent="WIyWlLk6GJQsqaUBKTNV-1" source="K40TqbRuSOX_g0Syc2Ux-1" target="K40TqbRuSOX_g0Syc2Ux-3">
          <mxGeometry relative="1" as="geometry" />
        </mxCell>
        <mxCell id="K40TqbRuSOX_g0Syc2Ux-1" value="&lt;div&gt;&lt;font data-font-src=&quot;https://fonts.googleapis.com/css?family=Poppins&quot; face=&quot;Poppins&quot;&gt;Pierwszy = 0&lt;/font&gt;&lt;/div&gt;&lt;div&gt;&lt;font data-font-src=&quot;https://fonts.googleapis.com/css?family=Poppins&quot; face=&quot;Poppins&quot;&gt;Drugi = 1&lt;/font&gt;&lt;/div&gt;&lt;div&gt;&lt;font data-font-src=&quot;https://fonts.googleapis.com/css?family=Poppins&quot; face=&quot;Poppins&quot;&gt;Limit = 20&lt;br&gt;&lt;/font&gt;&lt;/div&gt;" style="rounded=0;whiteSpace=wrap;html=1;" vertex="1" parent="WIyWlLk6GJQsqaUBKTNV-1">
          <mxGeometry x="354" y="160" width="120" height="60" as="geometry" />
        </mxCell>
        <mxCell id="K40TqbRuSOX_g0Syc2Ux-7" value="&lt;div&gt;&lt;font data-font-src=&quot;https://fonts.googleapis.com/css?family=Poppins&quot; face=&quot;Poppins&quot;&gt;Nie&lt;/font&gt;&lt;/div&gt;" style="edgeStyle=orthogonalEdgeStyle;rounded=0;orthogonalLoop=1;jettySize=auto;html=1;verticalAlign=bottom;" edge="1" parent="WIyWlLk6GJQsqaUBKTNV-1" source="K40TqbRuSOX_g0Syc2Ux-3" target="K40TqbRuSOX_g0Syc2Ux-6">
          <mxGeometry relative="1" as="geometry" />
        </mxCell>
        <mxCell id="K40TqbRuSOX_g0Syc2Ux-9" value="&lt;font data-font-src=&quot;https://fonts.googleapis.com/css?family=Poppins&quot; face=&quot;Poppins&quot;&gt;Tak&lt;/font&gt;" style="edgeStyle=orthogonalEdgeStyle;rounded=0;orthogonalLoop=1;jettySize=auto;html=1;verticalAlign=bottom;" edge="1" parent="WIyWlLk6GJQsqaUBKTNV-1" source="K40TqbRuSOX_g0Syc2Ux-3" target="K40TqbRuSOX_g0Syc2Ux-8">
          <mxGeometry relative="1" as="geometry" />
        </mxCell>
        <mxCell id="K40TqbRuSOX_g0Syc2Ux-3" value="&lt;font data-font-src=&quot;https://fonts.googleapis.com/css?family=Poppins&quot; face=&quot;Poppins&quot;&gt;Limit = = 0&lt;br&gt;&lt;/font&gt;" style="rhombus;whiteSpace=wrap;html=1;" vertex="1" parent="WIyWlLk6GJQsqaUBKTNV-1">
          <mxGeometry x="361" y="260" width="106" height="130" as="geometry" />
        </mxCell>
        <mxCell id="K40TqbRuSOX_g0Syc2Ux-6" value="&lt;div&gt;&lt;font data-font-src=&quot;https://fonts.googleapis.com/css?family=Poppins&quot; face=&quot;Poppins&quot;&gt;t = pierwszy + drugi&lt;/font&gt;&lt;/div&gt;&lt;div&gt;&lt;font data-font-src=&quot;https://fonts.googleapis.com/css?family=Poppins&quot; face=&quot;Poppins&quot;&gt;limit - 1&lt;/font&gt;&lt;/div&gt;&lt;div&gt;&lt;font data-font-src=&quot;https://fonts.googleapis.com/css?family=Poppins&quot; face=&quot;Poppins&quot;&gt;WyÅ›wietl t&lt;/font&gt;&lt;/div&gt;&lt;div&gt;&lt;font data-font-src=&quot;https://fonts.googleapis.com/css?family=Poppins&quot; face=&quot;Poppins&quot;&gt;Pierwszy = drugi&lt;/font&gt;&lt;/div&gt;&lt;div&gt;&lt;font data-font-src=&quot;https://fonts.googleapis.com/css?family=Poppins&quot; face=&quot;Poppins&quot;&gt;Drugi = t&lt;br&gt;&lt;/font&gt;&lt;/div&gt;" style="rounded=0;whiteSpace=wrap;html=1;" vertex="1" parent="WIyWlLk6GJQsqaUBKTNV-1">
          <mxGeometry x="160" y="282.5" width="160" height="85" as="geometry" />
        </mxCell>
        <mxCell id="K40TqbRuSOX_g0Syc2Ux-8" value="&lt;div&gt;&lt;font data-font-src=&quot;https://fonts.googleapis.com/css?family=Poppins&quot; face=&quot;Poppins&quot;&gt;Stop&lt;/font&gt;&lt;/div&gt;" style="ellipse;whiteSpace=wrap;html=1;" vertex="1" parent="WIyWlLk6GJQsqaUBKTNV-1">
          <mxGeometry x="510" y="285" width="120" height="80" as="geometry" />
        </mxCell>
        <mxCell id="K40TqbRuSOX_g0Syc2Ux-10" value="" style="endArrow=none;html=1;rounded=0;exitX=0.5;exitY=0;exitDx=0;exitDy=0;" edge="1" parent="WIyWlLk6GJQsqaUBKTNV-1" source="K40TqbRuSOX_g0Syc2Ux-6">
          <mxGeometry width="50" height="50" relative="1" as="geometry">
            <mxPoint x="390" y="430" as="sourcePoint" />
            <mxPoint x="360" y="240" as="targetPoint" />
            <Array as="points">
              <mxPoint x="240" y="240" />
            </Array>
          </mxGeometry>
        </mxCell>
        <mxCell id="K40TqbRuSOX_g0Syc2Ux-12" value="" style="endArrow=classic;html=1;rounded=0;" edge="1" parent="WIyWlLk6GJQsqaUBKTNV-1">
          <mxGeometry width="50" height="50" relative="1" as="geometry">
            <mxPoint x="360" y="240" as="sourcePoint" />
            <mxPoint x="420" y="240" as="targetPoint" />
          </mxGeometry>
        </mxCell>
      </root>
    </mxGraphModel>
  </diagram>
</mxfile>
